PathFileType	4	(X/Y/Z)	S01_0018_Gait_markers.trc
DataRate	CameraRate	NumFrames	NumMarkers	Units	OrigDataRate	OrigDataStartFrame	OrigNumFrames
250.000000	250.000000	4	54	mm	250.000000	272	363
Frame#	Time	HEAD_ANT			R_HEAD			L_HEAD			C7			R_BACK			L_BACK			STERNUM			R_ACROMION			R_HUM_PROX			R_HUM_ANT			R_HUM_POST			R_ELBOW_LAT			R_ELBOW_MED			R_FOREARM			R_WIRST_LAT			R_WRITS_MED			R_HAND			L_ACROMION			L_HUM_PROX			L_HUM_ANT			L_HUM_POST			L_ELBOW_LAT			L_ELBOW_MED			L_FOREARM			L_WRIST_LAT			L_WIRST_MED			L_HAND			R_ILIAC			SACRUM			L_ILIAC			R_GTROCH			R_THIGH__1			R_THIGH_2			R_THIGH_3			R_THIGH_4			R_SHANK_1			R_SHANK_2			R_SHANK_3			R_SHANK_4			R_HEEL			R_FOOT_LAT			R_FOOT_MED			L_GTROCH			L_THIGH_1			L_THIGH_2			L_THIGH_3			L_THIGH_4			L_SHANK_1			L_SHANK_2			L_SHANK_3			L_SHANK_4			L_HEEL			L_FOOT_LAT			L_FOOT_MED			
		X1	Y1	Z1	X2	Y2	Z2	X3	Y3	Z3	X4	Y4	Z4	X5	Y5	Z5	X6	Y6	Z6	X7	Y7	Z7	X8	Y8	Z8	X9	Y9	Z9	X10	Y10	Z10	X11	Y11	Z11	X12	Y12	Z12	X13	Y13	Z13	X14	Y14	Z14	X15	Y15	Z15	X16	Y16	Z16	X17	Y17	Z17	X18	Y18	Z18	X19	Y19	Z19	X20	Y20	Z20	X21	Y21	Z21	X22	Y22	Z22	X23	Y23	Z23	X24	Y24	Z24	X25	Y25	Z25	X26	Y26	Z26	X27	Y27	Z27	X28	Y28	Z28	X29	Y29	Z29	X30	Y30	Z30	X31	Y31	Z31	X32	Y32	Z32	X33	Y33	Z33	X34	Y34	Z34	X35	Y35	Z35	X36	Y36	Z36	X37	Y37	Z37	X38	Y38	Z38	X39	Y39	Z39	X40	Y40	Z40	X41	Y41	Z41	X42	Y42	Z42	X43	Y43	Z43	X44	Y44	Z44	X45	Y45	Z45	X46	Y46	Z46	X47	Y47	Z47	X48	Y48	Z48	X49	Y49	Z49	X50	Y50	Z50	X51	Y51	Z51	X52	Y52	Z52	X53	Y53	Z53	X54	Y54	Z54	

273	1.088	1603.087768554688	1739.909912109375	-353.1282348632809	1543.47412109375	1688.307250976562	-276.2536621093746	1541.097290039062	1694.328857421875	-423.0636291503902	1404.701538085938	1522.039306640625	-354.7734680175778	1332.115600585938	1323.15869140625	-295.2341003417966	1335.18115234375	1331.004516601562	-436.4073181152341	1584.539184570312	1361.155639648438	-354.9502868652341	1477.100219726562	1470.261596679688	-181.7547760009762	1420.260864257812	1312.341552734375	-95.81539916992158	1473.038208007812	1221.542358398438	-86.5051193237302	1352.293090820312	1235.342041015625	-89.63343811035129	1391.310424804688	1124.193115234375	-76.55072021484349	1371.874389648438	1121.930297851562	-158.6888732910154	1491.016357421875	940.2052612304688	-78.17596435546854	1532.835083007812	877.6428833007812	-117.6689453124998	1463.49609375	850.7089233398438	-85.50964355468732	1535.204833984375	787.6253662109375	-66.39959716796858	1490.20703125	1481.261962890625	-520.6543579101559	1486.796020507812	1317.763793945313	-622.4457397460934	1551.376220703125	1239.710815429688	-614.1345214843748	1435.97705078125	1238.824096679688	-658.2116088867185	1501.2509765625	1136.70703125	-659.6634521484373	1439.1865234375	1125.748291015625	-612.3568115234373	1628.924682617188	983.3848876953126	-605.5677490234373	1657.353759765625	931.5364379882814	-543.4171752929685	1633.087158203125	898.8051757812501	-610.540344238281	1713.7802734375	858.1312866210939	-576.1097412109373	1481.280395507812	1075.886962890625	-189.8973999023435	1347.002197265625	1045.503051757812	-351.0116882324216	1459.504028320312	1068.69580078125	-532.2314453124998	1448.36572265625	923.2314453125	-168.7687988281248	1569.917724609375	656.888427734375	-190.5726776123045	1619.131225585938	689.1939086914062	-187.6182250976561	1653.06201171875	592.0000610351562	-220.3418884277342	1589.662109375	579.3286743164062	-210.9858245849608	1604.816284179688	359.2770996093751	-208.0075225830077	1663.139526367188	345.9145507812501	-217.7097625732421	1671.249267578125	261.2808532714844	-233.4453582763671	1606.988159179688	259.3587036132813	-228.1341094970703	1607.182006835938	43.44279861450202	-313.1488037109375	1763.698852539062	37.40230941772466	-218.3470001220703	1818.603637695312	64.99284362792976	-301.1536560058594	1417.867553710938	956.9537963867189	-529.2675781249998	1454.244506835938	665.4509277343751	-514.8574829101561	1404.93310546875	693.8825073242189	-529.1342773437499	1374.393432617188	597.1681518554689	-496.0606384277343	1437.65771484375	588.4544677734376	-490.1070861816405	1340.136108398438	330.1369934082032	-476.2602844238281	1279.73876953125	320.8519592285157	-478.2256469726562	1258.945922851562	237.9631958007814	-458.8851928710937	1322.242065429688	231.1778411865236	-450.1061096191406	1180.458740234375	63.04640197753915	-383.2172241210938	1350.889526367188	20.41232490539561	-456.9952697753906	1390.404907226562	27.12717628479012	-351.1384582519531	
274	1.092	1608.681884765625	1738.869140625	-352.7584533691402	1549.587036132812	1687.065551757812	-274.934906005859	1546.685913085938	1693.186401367188	-422.8031921386715	1410.227661132812	1520.890991210938	-354.6873168945309	1336.454467773438	1321.725341796875	-295.1350097656247	1340.456176757812	1330.007934570312	-436.1646728515622	1589.990600585938	1359.803100585938	-354.7617187499997	1482.556274414062	1469.108154296875	-181.5358123779294	1425.495971679688	1311.19140625	-95.78322601318331	1478.10888671875	1220.45654296875	-86.44763946533176	1357.508911132812	1234.176635742188	-89.70320892333957	1396.311279296875	1123.113525390625	-76.55360412597631	1376.737670898438	1121.050170898438	-158.8171539306638	1495.801879882812	939.0890502929688	-77.91326904296854	1537.57666015625	876.4286499023438	-117.4189453124998	1468.245361328125	849.5444946289062	-85.307907104492	1539.762573242188	786.462890625	-66.05713653564436	1495.949951171875	1480.169067382813	-520.4989624023434	1492.459838867188	1316.74560546875	-622.2701416015622	1557.222900390625	1238.8974609375	-614.0661621093748	1441.7138671875	1237.66796875	-657.9996337890623	1507.622192382812	1135.763305664063	-659.6365966796873	1446.229248046875	1124.398803710938	-611.6007080078123	1636.04248046875	983.2093505859376	-605.1918334960935	1664.560180664062	931.7437133789064	-542.8579101562498	1640.640502929688	898.7302856445314	-609.877014160156	1721.59716796875	858.7658081054689	-575.1337890624998	1486.692626953125	1074.670532226562	-189.7712249755857	1352.490478515625	1044.274780273438	-350.7729187011716	1464.789184570312	1067.5693359375	-532.0644531249998	1453.896484375	921.943603515625	-169.0315093994139	1574.40966796875	655.4668579101562	-190.5316772460936	1623.571655273438	687.6078491210938	-187.4821014404295	1657.772094726562	590.6685791015625	-220.2340698242186	1594.222900390625	577.7783813476562	-211.2860107421874	1614.318969726562	357.6136779785157	-208.396270751953	1672.838134765625	345.6343688964844	-218.2822265624999	1682.885375976562	261.1945190429688	-233.8925628662109	1618.714477539062	257.6789550781251	-228.6617584228515	1623.9482421875	42.06510925292976	-313.8681030273438	1780.812255859375	39.41629791259771	-219.3686218261719	1834.987548828125	68.39850616455085	-302.1502990722656	1422.994018554688	956.3861083984376	-529.274719238281	1457.223754882812	665.0795288085939	-515.0280151367186	1408.16552734375	693.7902832031251	-529.3823242187499	1376.9609375	597.2160644531251	-495.8571166992186	1440.241333007812	588.2081298828126	-490.7507934570311	1341.310424804688	330.3723449707032	-476.3938293457031	1280.937866210938	321.1943359375001	-478.3168334960937	1259.8349609375	238.3739013671876	-458.9355163574218	1323.095336914062	231.3276977539064	-450.2932128906249	1180.613647460938	63.89317703247079	-382.9517211914062	1350.775756835938	20.39673614501963	-456.9386901855469	1390.451171875	27.16861724853523	-351.1553955078125	
275	1.096	1614.250366210938	1737.680908203125	-352.3998413085934	1554.621826171875	1685.889526367188	-275.6604309082027	1552.266967773438	1692.143310546875	-422.452484130859	1415.72900390625	1520.018310546875	-354.2106018066403	1341.74853515625	1320.707641601562	-295.123352050781	1345.983520507812	1329.03369140625	-436.1717224121091	1595.56591796875	1358.530151367188	-354.6593322753903	1488.016235351562	1467.982177734375	-181.2969360351559	1430.761352539062	1310.156127929688	-95.80191040039034	1483.292724609375	1219.272705078125	-86.33255767822239	1362.476806640625	1233.264038085938	-89.79780578613254	1401.389526367188	1121.968383789062	-76.64238739013646	1381.938354492188	1120.084838867188	-158.8273010253904	1500.569213867188	937.7415771484375	-77.62266540527322	1541.584350585938	874.5577392578125	-117.9427261352537	1472.944091796875	848.2955932617188	-84.96817016601544	1544.347534179688	785.2517700195312	-65.77368164062483	1501.54052734375	1479.033447265625	-520.3052978515622	1498.313232421875	1315.73193359375	-622.1168212890622	1563.315673828125	1237.987548828125	-614.0160522460935	1447.637817382812	1236.750122070313	-657.9181518554685	1514.04150390625	1134.801025390625	-659.5431518554685	1452.351684570312	1123.331420898438	-611.7873535156248	1643.158569335938	983.1382446289064	-604.7346191406248	1671.872314453125	931.9288940429689	-542.1987304687498	1648.089599609375	898.6048583984376	-609.193176269531	1729.307861328125	859.3084716796876	-574.2218017578123	1492.066040039062	1073.232055664062	-189.7070312499998	1358.091552734375	1043.18408203125	-350.4543151855466	1470.110595703125	1066.402954101563	-532.0260620117185	1459.32568359375	920.4146118164062	-169.3187408447264	1578.808227539062	653.625732421875	-191.0335845947264	1627.844848632812	685.9232177734375	-187.1673126220702	1662.444091796875	589.22705078125	-220.0406036376952	1598.97412109375	576.4898681640625	-211.3050537109374	1623.82470703125	356.0091247558594	-208.5984344482421	1682.676025390625	345.5728759765626	-218.5728912353515	1694.662719726562	261.4837951660157	-234.5674743652343	1630.46728515625	256.2276000976563	-228.8223419189453	1640.453369140625	40.90264129638679	-315.1385803222656	1797.651977539062	41.60647583007817	-220.3363494873047	1850.92724609375	71.70038604736335	-303.3815002441406	1428.05029296875	955.6300659179689	-529.029602050781	1460.501220703125	664.5700683593751	-515.2877807617186	1411.500732421875	693.5747070312501	-529.3513183593749	1379.681396484375	597.2396850585939	-495.9877319335936	1442.76171875	587.7877197265626	-490.6419677734374	1342.5693359375	330.4722595214845	-476.3977661132812	1282.179565429688	321.6348571777345	-478.2431945800781	1260.765869140625	238.8203277587892	-459.0034790039062	1323.961303710938	231.4531097412111	-450.4520568847656	1180.357666015625	64.89986419677743	-383.4456176757812	1350.652954101562	20.37030410766612	-456.8845825195312	1390.481079101562	27.1921920776368	-351.2017822265625	
276	1.1	1619.877807617188	1736.618408203125	-352.0774536132809	1560.7275390625	1684.642456054688	-274.4374389648434	1557.91650390625	1691.038696289062	-422.3215332031246	1421.28662109375	1518.963134765625	-354.1584167480465	1347.071899414062	1319.590576171875	-294.7738647460935	1351.496459960938	1327.776733398438	-436.1864013671872	1600.977294921875	1357.181640625	-354.5544433593747	1493.482421875	1466.825805664062	-181.102127075195	1435.993530273438	1308.966430664062	-95.84869384765597	1488.430541992188	1218.040649414062	-86.24451446533176	1367.722290039062	1232.080810546875	-89.73735046386692	1406.281860351562	1120.91552734375	-76.45637512207006	1387.237548828125	1118.799072265625	-158.9260559082029	1505.385498046875	936.578369140625	-77.33071899414041	1546.341552734375	873.2637939453125	-117.6796112060545	1477.682983398438	847.148681640625	-84.78404998779278	1548.965209960938	783.9573364257812	-65.26381683349592	1507.15234375	1477.804077148438	-520.0851440429684	1504.150268554688	1314.648681640625	-622.0039672851559	1569.255249023438	1236.933715820313	-614.0163574218748	1453.8076171875	1235.47802734375	-658.210266113281	1520.24169921875	1133.897338867188	-659.6449584960935	1457.9580078125	1122.174438476563	-612.5355224609373	1650.18212890625	983.0069580078126	-604.304016113281	1679.025634765625	932.1629028320314	-541.677551269531	1655.530883789062	898.3402099609376	-608.557189941406	1737.105102539062	859.6857299804689	-573.4520263671873	1497.499755859375	1071.982055664062	-189.564010620117	1363.501220703125	1042.077880859375	-350.3774414062498	1475.341674804688	1065.15576171875	-532.107238769531	1464.673095703125	918.9404296875	-169.4109497070311	1583.015991210938	651.8905639648438	-191.225631713867	1631.971313476562	684.4078979492188	-186.9191284179686	1666.751708984375	587.4505004882812	-220.2952270507811	1603.49951171875	574.6455078125	-211.7577514648436	1633.423950195312	354.5434875488282	-208.6835937499999	1692.306030273438	345.4618530273438	-219.2945556640624	1706.15087890625	261.6215820312501	-235.146255493164	1642.5166015625	254.803451538086	-229.3264770507812	1656.826538085938	40.04377746582038	-315.8843383789062	1813.988159179688	43.51478195190435	-221.3823852539062	1866.641967773438	75.00041961669929	-304.5315551757812	1433.339599609375	954.9529418945314	-529.008850097656	1463.491943359375	664.0136108398439	-515.5266113281249	1414.796142578125	693.5437011718751	-529.4829101562499	1382.621948242188	597.3997192382814	-496.1596374511718	1445.431518554688	587.3115234375001	-490.8080749511718	1343.588134765625	330.0855712890626	-476.1762084960937	1283.288696289062	321.9909667968751	-478.1836853027343	1261.5390625	239.3053588867189	-458.9989929199218	1324.78076171875	231.6721649169923	-450.6557006835937	1180.534057617188	65.60044860839852	-383.3448791503906	1350.572387695312	20.33999633789073	-456.7839050292969	1390.53515625	27.20910263061531	-351.2510070800781	
